<?xml version="1.0" standalone="no"?><!DOCTYPE svg PUBLIC "-//W3C//DTD SVG 1.1//EN" "http://www.w3.org/Graphics/SVG/1.1/DTD/svg11.dtd"><svg t="1571973594452" class="icon" viewBox="0 0 1024 1024" version="1.1" xmlns="http://www.w3.org/2000/svg" p-id="3545" xmlns:xlink="http://www.w3.org/1999/xlink" width="128" height="128"><defs><style type="text/css"></style></defs><path d="M545.76307 210.991c-21.949-16.502-57.953-16.596-79.887-0.112L133.39207 460.691c-21.889 16.561-39.93 54.619-39.93 84.58v423.741c0 30.092 21.564 54.75 47.832 54.75h152.708c26.356 0 47.898-24.658 47.898-54.75V674.827c0-30.038 21.59-54.611 47.857-54.611h245.326c26.357 0 47.924 24.573 47.924 54.611v294.186c0 30.092 21.601 54.75 47.916 54.75h152.791c26.309 0 47.835-24.658 47.835-54.75V556.346c0-30.039-18.078-68.26-40.082-84.842L545.76307 210.991z" fill="#2c2c2c" p-id="3546"></path><path d="M971.37307 350.712c-21.869-16.656-39.823-54.773-39.823-84.989v-86.301c0-30.088-21.526-54.803-47.835-54.803h-8.013c-26.397 0-47.836 24.715-47.836 54.803v7.753c0 30.164-17.993 41.135-40.081 24.469L548.38407 30.315C526.49607 13.675 506.62807 0 504.34007 0c-2.372 0-22.287 13.675-44.219 30.209L23.97807 359.634C2.03907 376.12-6.41493 406.208 5.24107 426.276c11.608 20.139 39.166 22.974 61.167 6.513l397.897-300.485c21.979-16.59 57.978-16.59 79.762 0L957.43507 445.42c21.95 16.604 49.49 13.723 61.163-6.322 11.674-20.107 3.223-50.292-18.734-66.849l-28.491-21.537z" fill="#2c2c2c" p-id="3547"></path></svg>